<?xml version="1.0" encoding="UTF-8" standalone="no"?>
<svg
   xmlns:dc="http://purl.org/dc/elements/1.1/"
   xmlns:cc="http://creativecommons.org/ns#"
   xmlns:rdf="http://www.w3.org/1999/02/22-rdf-syntax-ns#"
   xmlns:svg="http://www.w3.org/2000/svg"
   xmlns="http://www.w3.org/2000/svg"
   viewBox="0 0 550.85333 40.146667"
   height="40.146667"
   width="550.85333"
   xml:space="preserve"
   id="svg2"
   version="1.1"><metadata
     id="metadata8"><rdf:RDF><cc:Work
         rdf:about=""><dc:format>image/svg+xml</dc:format><dc:type
           rdf:resource="http://purl.org/dc/dcmitype/StillImage" /></cc:Work></rdf:RDF></metadata><defs
     id="defs6" /><g
     transform="matrix(1.3333333,0,0,-1.3333333,0,40.146667)"
     id="g10"><g
       transform="scale(0.1)"
       id="g12"><path
         id="path14"
         style="fill:#000000;fill-opacity:1;fill-rule:nonzero;stroke:none"
         d="m 2385.65,1.64063 h 99.03 c 13.16,0 23.84,6.5625 23.84,19.06247 0,12.4883 -10.68,19.6797 -23.84,19.6797 h -99.03" /><path
         id="path16"
         style="fill:#000000;fill-opacity:1;fill-rule:nonzero;stroke:none"
         d="m 2133.36,297.629 c -13.15,0 -23.84,-6.563 -23.84,-19.059 l 0.15,-90.179 c 0,-13.164 -6.57,-23.84 -19.07,-23.84 l -25.64,-0.481 c -13.17,0 -23.84,-6.57 -23.84,-19.058 l -1.45,-122.969 c 0,-12.4805 10.67,-19.67191 23.85,-19.67191 l 192.84,-0.73046 c 13.17,0 23.86,6.5625 23.86,19.06247 0,12.4883 -10.69,19.6797 -23.86,19.6797 l -151.28,-0.3945 c -13.18,0 -23.85,7.1914 -23.85,19.6797 l 1.45,45.945 c 0,12.492 10.67,19.067 23.84,19.067 l 149.84,-0.215 c 13.17,0 23.86,6.558 23.86,19.058 0,12.493 -10.69,19.68 -23.86,19.68 l -33.26,0.274 c -13.18,0 -23.85,7.199 -23.85,19.687 l 1.45,56.348 c 0,12.492 10.68,19.054 23.85,19.054 l 31.81,0.282 c 13.17,0 23.86,6.574 23.86,19.058 0,12.496 -10.69,19.676 -23.86,19.676 l -123,0.047" /><path
         id="path18"
         style="fill:#000000;fill-opacity:1;fill-rule:nonzero;stroke:none"
         d="m 3951.53,128.953 c -13.15,0 -23.83,6.574 -23.83,19.067 l -1.46,131.281 c 0,12.488 10.68,19.683 23.84,19.683 l 140.82,0.727 c 13.17,0 23.85,-6.57 23.85,-19.063 0,-12.484 -10.68,-19.671 -23.85,-19.671 l -99.25,0.382 c -13.17,0 -23.83,-7.187 -23.83,-19.679 l 1.44,-54.27 c 0,-12.5 10.67,-19.058 23.83,-19.058 l 114.47,0.203 c 13.17,0 23.85,-6.563 23.85,-19.051 l -1.46,-128.8009 c 0,-12.49997 -10.69,-19.06247 -23.85,-19.06247 L 3920.65,1.6875 c -13.16,0 -23.83,7.19141 -23.83,19.668 0,12.4922 10.67,19.0664 23.83,19.0664 l 98.44,0.2812 c 13.16,0 23.83,6.5625 23.83,19.0547 l 1.46,48.0352 c 0,12.48 -10.68,19.668 -23.85,19.668 l -69,1.492" /><path
         id="path20"
         style="fill:#000000;fill-opacity:1;fill-rule:nonzero;stroke:none"
         d="m 1655.07,297.629 c -13.17,0 -23.83,-6.563 -23.83,-19.059 l 0.13,-90.179 c 0,-13.164 -6.57,-23.84 -19.07,-23.84 l -25.64,-0.481 c -13.15,0 -23.83,-6.57 -23.83,-19.058 l -1.45,-122.969 c 0,-12.4805 10.67,-19.67191 23.84,-19.67191 l 192.86,-0.73046 c 13.16,0 23.83,6.5625 23.83,19.06247 0,12.4883 -10.67,19.6797 -23.83,19.6797 l -151.3,-0.3945 c -13.17,0 -23.84,7.1914 -23.84,19.6797 l 1.44,45.945 c 0,12.492 10.68,19.067 23.84,19.067 l 149.86,-0.215 c 13.16,0 23.83,6.558 23.83,19.058 0,12.493 -10.67,19.68 -23.83,19.68 l -33.27,0.274 c -13.18,0 -23.85,7.199 -23.85,19.687 l 1.45,56.348 c 0,12.492 10.68,19.054 23.83,19.054 l 31.84,0.282 c 13.16,0 23.83,6.574 23.83,19.058 0,12.496 -10.67,19.676 -23.83,19.676 l -123.01,0.047" /><path
         id="path22"
         style="fill:#000000;fill-opacity:1;fill-rule:nonzero;stroke:none"
         d="m 2321.44,22.043 c 0,-12.4805 10.68,-19.67191 23.84,-19.67191 l 139.4,-0.73046 c 13.16,0 23.83,6.5625 23.83,19.06247 0,12.4883 -10.67,19.6797 -23.83,19.6797 l -97.83,-0.3945 c -13.18,0 -23.85,7.1914 -23.85,19.6797 l 1.44,136.98 c 0,12.493 10.68,19.067 23.85,19.067 l 97.83,-0.215 c 13.16,0 23.83,6.57 23.83,19.063 v 45.597 c 0,12.492 -10.67,19.68 -23.83,19.68 l -139.39,0.863 c -13.18,0 -23.83,-6.566 -23.83,-19.062 l -1.46,-259.598" /><path
         id="path24"
         style="fill:#000000;fill-opacity:1;fill-rule:nonzero;stroke:none"
         d="m 3697.08,22.043 c 0,-12.4805 10.68,-19.67191 23.84,-19.67191 l 139.4,-0.73046 c 13.18,0 23.83,6.5625 23.83,19.06247 0,12.4883 -10.65,19.6797 -23.83,19.6797 l -97.83,-0.3945 c -13.17,0 -23.85,7.1914 -23.85,19.6797 l 1.44,136.98 c 0,12.493 10.69,19.067 23.85,19.067 l 97.83,-0.215 c 13.17,0 23.83,6.57 23.83,19.063 v 45.597 c 0,12.492 -10.66,19.68 -23.83,19.68 l -139.39,0.863 c -13.17,0 -23.83,-6.566 -23.83,-19.062 l -1.46,-259.598" /><path
         id="path26"
         style="fill:#000000;fill-opacity:1;fill-rule:nonzero;stroke:none"
         d="m 3242.64,281.641 c 0,12.496 -10.66,19.062 -23.83,19.062 H 3056.2 c -13.17,0 -23.83,-6.566 -23.83,-19.062 L 3030.9,22.043 c 0,-12.4805 10.69,-19.67191 23.85,-19.67191 h 165.51 c 13.16,0 23.85,7.19141 23.85,19.67191 z M 3182.08,82.3555 h -89.15 c -13.16,0 -23.82,7.1875 -23.82,19.6755 l 1.44,136.985 c 0,12.488 10.69,19.05 23.83,19.05 h 86.25 c 13.16,0 23.83,-6.562 23.83,-19.05 l 1.46,-136.985 c 0,-12.488 -10.68,-19.6755 -23.84,-19.6755" /><path
         id="path28"
         style="fill:#000000;fill-opacity:1;fill-rule:nonzero;stroke:none"
         d="m 3503.21,281.027 c 0,12.485 -10.69,19.672 -23.85,19.672 h -165.49 c -13.18,0 -23.85,-7.187 -23.85,-19.672 l 1.2,-38.828 -1.2,-215.4607 c 0,-13.1641 6.57,-23.83986 19.05,-23.83986 12.5,0 19.69,10.67576 19.69,23.83986 l -0.02,169.4917 c 0,12.493 10.68,19.68 23.84,19.68 h 87.05 c 13.17,0 23.85,-7.187 23.85,-19.68 l 1,-168.9644 c 0,-13.1718 6.56,-23.84763 19.04,-23.84763 12.5,0 19.69,10.67583 19.69,23.84763 l -0.06,187.9684 0.06,65.793" /><path
         id="path30"
         style="fill:#000000;fill-opacity:1;fill-rule:nonzero;stroke:none"
         d="m 2643.33,196.648 c 0,12.493 10.66,19.067 23.83,19.067 l 29.92,-0.215 c 13.18,0 23.84,6.57 23.84,19.063 v 45.597 c 0,12.492 -10.66,19.68 -23.84,19.68 h -145 c -13.15,0 -23.84,-7.188 -23.84,-19.68 v -45.597 c 0,-12.493 10.69,-19.063 23.84,-19.063 l 29.92,0.215 c 13.17,0 23.84,-6.574 23.84,-19.067 l -1.2,-171.3277 c 0,-13.164 6.57,-23.83592 19.06,-23.83592 12.5,0 19.68,10.67192 19.68,23.83592 l -0.05,171.3277" /><path
         id="path32"
         style="fill:#000000;fill-opacity:1;fill-rule:nonzero;stroke:none"
         d="m 3625,105.383 c 0,23.426 0.06,171.32 0.06,171.32 0,13.164 -7.18,23.844 -19.68,23.844 -12.48,0 -19.07,-10.68 -19.07,-23.844 l 1.21,-171.32 c 0,-12.4924 -8.59,-19.0549 -21.75,-19.0549 l -9.11,0.2032 c -13.16,0 -25.91,-6.5586 -25.91,-19.0586 V 21.8633 c 0,-12.4883 12.75,-19.6758 25.91,-19.6758 h 78.4 c 13.15,0 23.83,7.1875 23.83,19.6758 0,0 0,14.2226 0,45.6094 0,31.3828 -33.89,5.5742 -33.89,37.9103" /><path
         id="path34"
         style="fill:#000000;fill-opacity:1;fill-rule:nonzero;stroke:none"
         d="m 965.688,299.84 c 13.175,0 23.839,-7.188 23.839,-19.68 v -45.597 c 0,-12.493 -10.664,-19.063 -23.839,-19.063 l -29.922,0.215 c -13.164,0 -23.836,-6.574 -23.836,-19.067 l 1.199,-171.3277 c 0,-13.164 -6.563,-23.83592 -19.063,-23.83592 -12.48,0 -19.675,10.67192 -19.675,23.83592 l 0.058,171.3277 c 0,12.493 -10.676,19.067 -23.84,19.067 h -82.168 c -13.171,0 -23.836,-6.574 -23.836,-19.067 l 0.047,-171.3277 c 0,-13.164 -7.187,-23.83592 -19.675,-23.83592 -12.5,0 -19.063,10.67192 -19.063,23.83592 l 1.199,171.3277 c 0,12.493 -10.664,19.067 -23.836,19.067 L 653.363,215.5 c -13.172,0 -23.847,6.57 -23.847,19.063 v 45.597 c 0,12.492 10.675,19.68 23.847,19.68 h 312.325" /><path
         id="path36"
         style="fill:#000000;fill-opacity:1;fill-rule:nonzero;stroke:none"
         d="m 1846.04,20.7031 c 0,-12.49997 10.67,-19.06247 23.84,-19.06247 L 1987.6,2.5 c 13.17,0 23.85,7.1875 23.85,19.6797 v 47.6836 c 0,12.4922 -10.68,19.0625 -23.85,19.0625 l -76.15,-0.2149 c -13.18,0 -23.84,6.5704 -23.84,19.0621 l -0.22,169.446 c 0,13.172 -6.56,23.847 -19.06,23.847 -12.48,0 -19.68,-10.675 -19.68,-23.847 l -2.61,-256.5159" /><path
         id="path38"
         style="fill:#000000;fill-opacity:1;fill-rule:nonzero;stroke:none"
         d="m 1078.53,297.629 c -13.18,0 -23.85,-6.563 -23.85,-19.059 l 0.13,-90.179 c 0,-13.164 -6.56,-23.84 -19.05,-23.84 l -25.65,-0.481 c -13.172,0 -23.844,-6.57 -23.844,-19.058 L 984.82,22.043 c 0,-12.4805 10.672,-19.67191 23.85,-19.67191 l 192.85,-0.73046 c 13.17,0 23.84,6.5625 23.84,19.06247 0,12.4883 -10.67,19.6797 -23.84,19.6797 l -151.3,-0.3945 c -13.16,0 -23.83,7.1914 -23.83,19.6797 l 1.44,45.945 c 0,12.492 10.68,19.067 23.84,19.067 l 149.85,-0.215 c 13.17,0 23.84,6.558 23.84,19.058 0,12.493 -10.67,19.68 -23.84,19.68 l -33.27,0.274 c -13.16,0 -23.84,7.199 -23.84,19.687 l 1.45,56.348 c 0,12.492 10.67,19.054 23.84,19.054 l 31.82,0.282 c 13.17,0 23.84,6.574 23.84,19.058 0,12.496 -10.67,19.676 -23.84,19.676 l -122.99,0.047" /><path
         id="path40"
         style="fill:#000000;fill-opacity:1;fill-rule:nonzero;stroke:none"
         d="m 1269.49,20.7031 c 0,-12.49997 10.68,-19.06247 23.84,-19.06247 L 1411.04,2.5 c 13.17,0 23.84,7.1875 23.84,19.6797 v 47.6836 c 0,12.4922 -10.67,19.0625 -23.84,19.0625 l -76.15,-0.2149 c -13.17,0 -23.85,6.5704 -23.85,19.0621 l -0.2,169.446 c 0,13.172 -6.56,23.847 -19.06,23.847 -12.49,0 -19.68,-10.675 -19.68,-23.847 l -2.61,-256.5159" /><path
         id="path42"
         style="fill:#000000;fill-opacity:1;fill-rule:nonzero;stroke:none"
         d="m 2986.86,133.977 c 0,29.937 -41.5,27.878 -41.5,44.402 0,16.523 -0.22,103.262 -0.22,103.262 0,12.496 -10.66,19.062 -23.83,19.062 H 2771.2 c -13.19,0 -23.85,-6.566 -23.85,-19.062 -0.02,-6.508 -0.06,-13.016 -0.1,-19.532 -0.47,-73.781 -1.93,-147.656 -0.86,-221.4254 0.14,-9.0508 -3.26,-19.6484 1.53,-27.7148 6.24,-10.54692 17.34,-13.273488 28.39,-12.9688 23.23,0.625 45.06,-5.60547 55.8,19.9727 l 3.21,84.5703 c 0,12.488 10.66,19.687 23.83,19.687 h 64.14 c 13.18,0 23.84,-7.199 23.84,-19.687 l 1,-79.5039 c 0,-13.1641 6.56,-23.83988 19.06,-23.83988 12.48,0 19.67,10.67578 19.67,23.83988 l -0.04,69.375 c 0,0 0.04,9.6089 0.04,39.5629 z m -106.5,29.558 h -68.3 c -13.17,0 -23.83,7.188 -23.83,19.68 l 1.44,55.801 c 0,12.488 10.67,19.05 23.83,19.05 h 65.43 c 13.17,0 23.83,-6.562 23.83,-19.05 l 1.44,-55.801 c 0,-12.492 -10.66,-19.68 -23.84,-19.68" /><path
         id="path44"
         style="fill:#000000;fill-opacity:1;fill-rule:nonzero;stroke:none"
         d="M 571.754,300.703 H 444.527 c -13.164,0 -20.07,-6.445 -23.828,-19.062 0,0 -83.672,-211.473 -85.765,-216.2816 -2.102,-4.8008 -16.77,-7.4375 -16.77,2.2695 0,9.7266 -0.527,206.9651 -0.527,206.9651 0,13.172 -5.621,25.164 -18.106,25.164 l -44.824,0.129 c -12.484,0 -16.996,-8.43 -25.914,-23.84 0,0 -53.215,-131.008 -56.375,-137.031 -3.164,-6.036 -12.902,-8.957 -14.516,-0.532 -1.629,8.418 -25.89,142.543 -25.89,142.543 0,12.485 -10.664,19.672 -23.844,19.672 H 23.8477 C 10.6797,300.699 0,293.512 0,281.027 L 1.20703,242.199 0,26.7383 C 0,13.5742 6.56641,2.89844 19.0664,2.89844 c 12.4922,0 19.6758,10.67576 19.6758,23.83986 L 38.7305,196.23 c 0,12.493 10.6758,19.68 23.8437,19.68 h 16.2696 c 13.1718,0 23.8472,-7.187 23.8472,-19.68 l 16.11,-90.007 c 0,-13.1761 6.566,-23.8402 19.062,-23.8402 l 41.938,-0.1953 c 12.484,0 18.785,9.082 25.765,22.5855 0,0 48.332,115.903 50.344,120.297 4.34,9.461 16.41,7.723 16.41,-1.465 0,-5.792 0.118,-172.3433 0.118,-172.3433 l 0.488,-25.6484 c 0,-13.1719 6.566,-23.82814 19.058,-23.82814 l 48.379,-0.58594 c 12.492,0 14.969,9.30858 23.227,23.83988 l 36.375,79.5039 c 5.91,11.48 13.887,19.461 23.848,19.687 h 59.98 c 13.176,0 23.848,-7.199 23.848,-19.687 l 3.183,-84.5703 C 510.336,-2.85156 543.395,0.625 566.617,0 c 11.063,-0.304688 28.438,6.95313 28.426,19.2188 l 0.547,262.4222 c 0,12.496 -10.664,19.062 -23.836,19.062 z M 530.883,163.535 h -78.719 c -27.023,0.379 -23.398,19.539 -21.758,25.918 l 22.254,49.563 c 6.406,10.898 10.684,19.05 23.848,19.05 h 52.93 c 13.164,0 23.839,-6.562 23.839,-19.05 l 1.446,-55.801 c 0,-12.492 -10.676,-19.68 -23.84,-19.68" /></g></g></svg>