<?xml version="1.0" encoding="UTF-8" standalone="no"?>
<!-- Created with Inkscape (http://www.inkscape.org/) -->
<svg xmlns:dc="http://purl.org/dc/elements/1.1/" xmlns:cc="http://web.resource.org/cc/" xmlns:rdf="http://www.w3.org/1999/02/22-rdf-syntax-ns#" xmlns:svg="http://www.w3.org/2000/svg" xmlns="http://www.w3.org/2000/svg" xmlns:sodipodi="http://sodipodi.sourceforge.net/DTD/sodipodi-0.dtd" xmlns:inkscape="http://www.inkscape.org/namespaces/inkscape" width="693.14172" height="103.67716" id="svg21865" sodipodi:version="0.32" inkscape:version="0.44" version="1.0" sodipodi:docbase="R:\Logos" sodipodi:docname="Sharp-Logo.svg">
  <defs id="defs21867"/>
  <sodipodi:namedview id="base" pagecolor="#ffffff" bordercolor="#666666" borderopacity="1.0" inkscape:pageopacity="0.0" inkscape:pageshadow="2" inkscape:zoom="0.35" inkscape:cx="350" inkscape:cy="520" inkscape:document-units="px" inkscape:current-layer="layer1" inkscape:window-width="1064" inkscape:window-height="732" inkscape:window-x="41" inkscape:window-y="143" width="195.62mm" height="29.26mm" units="mm"/>
  <metadata id="metadata21870">
    <rdf:RDF>
      <cc:Work rdf:about="">
        <dc:format>image/svg+xml</dc:format>
        <dc:type rdf:resource="http://purl.org/dc/dcmitype/StillImage"/>
      </cc:Work>
    </rdf:RDF>
  </metadata>
  <g inkscape:label="Ebene 1" inkscape:groupmode="layer" id="layer1" transform="translate(-233.7788,-515.8213)">
    <g id="g21883" style="fill:#e6002a;fill-opacity:1" transform="translate(1.778232,1.779163)">
      <path style="font-size:7.48759985px;letter-spacing:-0.074876;word-spacing:0.22463;fill:#e6002a;fill-opacity:1;fill-rule:nonzero;stroke:none;stroke-width:0.105;stroke-linecap:butt;stroke-linejoin:miter;stroke-miterlimit:4;stroke-dasharray:none;font-family:fnt0, &quot;FranklinGothic&quot;, Arial" d="M 233.7788,601.91512 L 245.92512,578.37383 C 245.92512,578.37383 280.7362,594.72753 305.52972,597.0065 C 326.9423,598.97247 331.57547,596.7686 332.95282,591.60957 C 333.95461,588.32878 331.82585,584.5096 326.19096,582.30573 C 320.55612,580.08935 302.9001,577.63501 291.37988,576.90874 C 279.85966,576.16993 249.18083,570.04672 241.79284,559.74115 C 234.40487,549.44808 228.39435,539.89376 249.68168,524.20374 C 261.45235,515.48847 301.14705,515.71386 308.53499,515.86413 C 320.80653,516.10203 358.99857,521.74946 366.88742,525.66882 L 356.74462,547.98299 C 356.74462,547.98299 324.8136,537.164 308.78543,534.98515 C 290.62856,532.53087 278.10658,533.75802 276.60397,537.43949 C 274.72564,542.04757 276.35353,543.45004 282.73974,546.5054 C 292.50686,551.16355 375.65281,552.14029 370.5188,588.17852 C 365.38475,624.46722 295.7626,614.97556 286.62153,614.41209 C 263.08023,612.947 233.7788,601.91512 233.7788,601.91512" class="ps05" id="path21209"/>
      <path style="font-size:7.48759985px;letter-spacing:-0.074876;word-spacing:0.22463;fill:#e6002a;fill-opacity:1;fill-rule:nonzero;stroke:none;stroke-width:0.105;stroke-linecap:butt;stroke-linejoin:miter;stroke-miterlimit:4;stroke-dasharray:none;font-family:fnt0, &quot;FranklinGothic&quot;, Arial" d="M 376.65454,520.27184 L 409.21172,520.27184 L 409.21172,555.08297 L 469.06675,555.08297 L 469.06675,520.27184 L 501.62387,520.27184 L 501.62387,613.68578 L 469.06675,613.68578 L 469.06675,575.43117 L 409.21172,575.43117 L 409.21172,613.68578 L 376.65454,613.68578 L 376.65454,520.27184" class="ps05 ps14 ps25" id="path21213"/>
      <path style="font-size:7.48759985px;letter-spacing:-0.074876;word-spacing:0.22463;fill:#e6002a;fill-opacity:1;fill-rule:nonzero;stroke:none;stroke-width:0.094;stroke-linecap:butt;stroke-linejoin:miter;stroke-miterlimit:4;stroke-dasharray:none;font-family:fnt0, &quot;FranklinGothic&quot;, Arial" d="M 503.87783,613.68578 L 561.72938,520.27184 L 598.41878,520.27184 L 654.76767,613.68578 L 616.57562,613.68578 L 604.05367,592.5988 L 542.32031,592.5988 L 529.29745,613.68578 L 503.87783,613.68578 z M 591.53169,572.73893 L 574.00092,542.82394 L 555.34314,572.73893 L 591.53169,572.73893" class="ps05 ps17 ps25" id="path21217"/>
      <path style="font-size:7.48759985px;letter-spacing:-0.074876;word-spacing:0.22463;fill:#e6002a;fill-opacity:1;fill-rule:nonzero;stroke:none;stroke-width:0.094;stroke-linecap:butt;stroke-linejoin:miter;stroke-miterlimit:4;stroke-dasharray:none;font-family:fnt0, &quot;FranklinGothic&quot;, Arial" d="M 794.13728,613.68578 L 794.13728,520.27184 C 794.13728,520.27184 821.56042,517.57962 853.49147,517.57962 C 885.2973,517.57962 923.36406,524.20374 923.36406,548.7218 C 923.36406,573.22731 886.79991,584.5096 858.12457,584.00872 C 829.44926,583.53288 827.9466,581.31648 827.9466,581.31648 L 826.69443,581.99266 L 826.69443,613.68578 L 794.13728,613.68578 z M 826.69443,562.62117 C 826.69443,562.62117 835.08416,565.37604 854.4932,565.62645 C 873.77708,565.87689 886.79991,560.96827 886.54947,549.93639 C 886.29903,538.90457 869.39435,534.00843 852.48968,534.00843 C 839.46682,534.00843 826.69443,536.63808 826.69443,536.63808 L 826.69443,562.62117" class="ps05 ps17 ps25" id="path21221"/>
      <path style="font-size:7.48759985px;letter-spacing:-0.074876;word-spacing:0.22463;fill:#e6002a;fill-opacity:1;fill-rule:evenodd;stroke:none;stroke-width:0.094;stroke-linecap:butt;stroke-linejoin:miter;stroke-miterlimit:4;stroke-dasharray:none;font-family:fnt0, &quot;FranklinGothic&quot;, Arial" d="M 790.38069,613.68578 L 749.05818,577.19676 C 769.46898,572.83911 787.37541,563.81078 787.50063,549.21012 C 787.75107,524.69211 750.31035,517.57962 718.3793,517.57962 C 686.44828,517.57962 659.02514,520.27184 659.02514,520.27184 L 659.02514,613.68578 L 691.70751,613.68578 L 691.70751,536.63808 C 691.70751,536.63808 704.35468,534.00843 717.37757,534.00843 C 734.28221,534.00843 750.31035,537.92786 750.31035,548.95971 C 750.31035,560.4799 736.03532,564.64976 716.62625,564.41183 C 709.48872,564.31166 704.22949,563.74815 700.47289,563.07196 L 695.33885,572.60121 L 743.29804,613.68578 L 790.38069,613.68578" class="ps018 ps17 ps25" id="path21231"/>
    </g>
  </g>
</svg>