<svg enable-background="new 0 0 3839.8 830" version="1.1" viewBox="0 0 3839.8 830" xml:space="preserve" xmlns="http://www.w3.org/2000/svg">
<path fill="#6187E5" class="st3" d="m2399.4 0c-31.901-0.55002-64.047 14.913-82.328 41.4-14.1 18.8-16.999 42.8-24.299 64.6-70 241.2-140.3 482.3-209.7 723.7h128.6c19.9-69.5 40.5-138.8 60.4-208.3 83.3-0.2 166.6-0.09961 249.9-0.09961 20.2 69.4 40.099 139 60.199 208.4 43.2-0.2 86.402 0.10078 129.6-0.19922-73-251.4-146.3-502.8-219.4-754.2-9.2-34-36-64.201-71.1-72.301-7.1625-1.8937-14.511-2.8731-21.873-3zm-915.48 0.23828c-28.936 0.23357-57.932 12.587-76.045 35.762-18.1 20.5-21.2 48.5-29.6 73.6-69.8 239.9-139.3 480-208.8 720 43 0.1 85.901-3.9e-4 128.8 0.09961 20.1-69.5 40.299-139 60.699-208.4 83.4 0.1 166.8-0.10039 250.3 0.09961 20.1 69.4 39.899 138.9 60.299 208.3 43.2-0.1 86.3 0 129.5 0-73-251.7-146.5-503.2-219.6-754.8-5.8-20.2-17.101-39-33.301-52.6-17.281-15.094-39.748-22.244-62.254-22.062zm218.55 1.4609c0 42.2-4e-4 84.201 0.0996 126.3 57.5 0 114.9-0.1 172.4 0v701.6h123.5v-701.6c57.5-0.1 114.9 0 172.4 0v-126.3h-468.4zm1183.7 0c-12.6-0.3-25.2 1.1012-37.1 5.2012-40.2 12.9-70.5 52.9-70.9 95.6 0.2 242.5 0.0016 484.9 0.1016 727.4 41.5 0 82.898-0.1 124.4 0 0.2-225.2-0.0984-450.5 0.1016-675.7-0.2-14.6 13.399-27.099 27.799-26.799 31.8-0.2 63.7 0.10039 95.6-0.09961 46.2-1.6 89.801 33.7 99.701 78.5 8.5 34.6 9.3992 73.5-9.3008 105-24.6 42-68.4 68.6-112.9 85.6-23.3 9.1-44.3 26.6-53 50.5-11.2 31.1-6.0984 67.399 12.602 94.699 63.6 96.1 126.8 192.5 190.7 288.4 48.8-0.2 97.6 3.9e-4 146.4-0.09961-66.6-100-134.6-199.3-199.9-300.2-6.8-14.1-6.2004-33.699 7.0996-43.799 24.2-18 52.3-30.201 74.9-50.301 42.7-36.9 66.1-92.599 70.4-148.2 6.3-53.2 3.7004-109.6-21.1-158-35.9-74.6-115-126.1-197.9-127.6-49.2-0.1-98.501 0.098437-147.7-0.10156zm479.4 0c0 276 4e-4 552-0.0996 828 43.7 0 87.3-0.1 130.9 0 0.2-276 0.0996-552 0.0996-828h-130.9zm362.2 0c-61.1-1e-7 -111.8 48.101-111.8 113.3 0 60 44.6 113 113.6 113h0.2012c57.7 0 109.8-46.599 109.8-112.7 0-65.8-50.699-113.6-111.8-113.6zm-3359.5 0.10156c-0.1 24.4 0.09961 48.798 0.09961 73.398-1.6 72-6.1004 144.1-16.9 215.4-8.6 56-21.3 112-44.9 163.9-20.1 45-46.499 87.499-79.699 124.2-32.2 35.5-70.301 65.702-112.7 88.102-35.7 18.8-74.199 33-114.2 39v123.8c33.2-4.7 65.9-13.1 97.6-24 56.1-19.4 109.3-47.999 154-87.299 49.9-42.4 94.3-92.8 122.6-152.4 17.3-37 31.3-75.901 38-116.3 9.8-58.5 13.501-117.9 16.301-177.1 1.6-41 2.7996-82 2.5996-123.1 0-49.2 0.1-98.4 0-147.6-21 0-41.899-0.1-62.799 0zm203.5 0c-38.5 0.1-77-0.10039-115.5 0.099609 0.1 187.9 0 375.9 0 563.9 0.1 87.9-0.30078 175.9 0.19922 263.9 38.4-0.3 76.901 3.9e-4 115.3-0.09961v-827.8zm25.699 0c0 45.2 3.9e-4 90.399-0.09961 135.7-0.5 80 2.2004 160 9.4004 239.6 3.7 36.8 7.9 73.901 17.5 109.7 10.6 35.7 23.998 70.7 42.398 103 23.6 41.5 54.9 78.2 89.9 110.5 21.3 19.5 43.401 38.198 67.701 53.898 33.3 21.7 69.6 38.602 107.1 51.602 31.5 10.7 63.799 19.199 96.799 23.699v-123.7c-16.8-2.5-33.3-6.5012-49.5-11.701-57.9-18.5-111.1-50.799-155.1-92.699-46.1-43.9-81.4-98.301-105.9-156.8-25.8-60.5-37.4-125.9-45.6-190.8-10-83.6-12.899-167.9-12.199-252h-62.4zm3130.7 43.299c35.5 0 73.4 25.601 73.4 69.301 0 42-34.399 70.199-73.699 70.199h-0.2012c-37.9 0-73.398-26.8-73.398-69.9 0-44 37.798-69.6 73.898-69.6zm-1330.9 144.6c29.9 104.6 60.4 209 90.5 313.6-60.4 0-120.8 0.1-181.2 0 30-104.6 60.401-209.1 90.701-313.6zm-913.2 0.5c30.4 104.3 60.6 208.7 90.9 313.1-60.6 0-121.2 0.19844-181.9-0.10156 30.4-104.3 60.4-208.8 91-313zm2243.7 59.201c-61.1 0-111.8 48.099-111.8 113.3 0 60 44.6 113 113.6 113h0.2012c57.7 0 109.8-46.599 109.8-112.7 0-65.9-50.699-113.6-111.8-113.6zm0.3984 43.5c35.5 0 73.4 25.599 73.4 69.299 0 42-34.399 70.201-73.699 70.201h-0.2012c-37.9 0-73.398-26.8-73.398-69.9 0-44 37.798-69.6 73.898-69.6zm70.9 206.9v87.1c-16.6-17.1-32.899-34.301-49.199-51.201-24.2-25.4-42-34.399-67-34.699-35.6 0-66.701 25.701-66.701 70.801 0 15.5 4.6008 43.399 28.801 60.299 16 11.9 33.8 14.5 50.4 15.1v-41.6c-22.2-0.3-41.1-9-41.1-30 0-17.8 11.099-31.199 32.299-31.199 24.7 0.3 39.6 17.5 58.5 39 18.9 21 37.6 41.9 56.5 62.9h34.201v-146.5h-36.701zm-36.5 170.4c-31.7 0-72.199 23.3-72.199 71.9 0 18.7 4.9 27.1 9 33.5l-42.5-7.5996v-80h-36.701v113.6l117.3 18.9 8.6992-35.199c-16.9-9.6-20.398-23.3-20.398-33.5 0-23 18.098-38.102 37.898-38.102 20.7 0 37.9 17.401 37.9 37.801 0 15.4-10.1 29.9-25 34.6v43.701c37.3-5.8 63.201-37.9 63.201-79.5 0-53-42.001-80.102-77.201-80.102z"/>
</svg>
