<?xml version="1.0" encoding="UTF-8"?>
<!-- Generator: Adobe Illustrator 17.0.0, SVG Export Plug-In . SVG Version: 6.00 Build 0)  -->
<!DOCTYPE svg PUBLIC "-//W3C//DTD SVG 1.1//EN" "http://www.w3.org/Graphics/SVG/1.1/DTD/svg11.dtd">
<svg version="1.1" id="Layer_1" xmlns:x="http://ns.adobe.com/Extensibility/1.0/" xmlns:i="http://ns.adobe.com/AdobeIllustrator/10.0/" xmlns:graph="http://ns.adobe.com/Graphs/1.0/" xmlns="http://www.w3.org/2000/svg" xmlns:xlink="http://www.w3.org/1999/xlink" x="0px" y="0px" width="156.619px" height="52.809px" viewBox="0 0 156.619 52.809" enable-background="new 0 0 156.619 52.809" xml:space="preserve">
<metadata>
	<sfw xmlns="http://ns.adobe.com/SaveForWeb/1.0/">
		<slices/>
		<sliceSourceBounds width="16383" height="52.809" x="-8101" y="9.149" bottomLeftOrigin="true"/>
	</sfw>
</metadata>
<g>
	<g>
		<rect x="0" y="0" width="130.394" height="52.809"/>
		<path fill="#FFFFFF" d="M120.078,7.434l-12.396,18.106l13.483,19.781h-12.451l-7.409-10.59l-7.469,10.615H81.466    c0.336-0.697,13.54-19.807,13.54-19.807l-5.628-7.83l-23.874,0.027c-1.113,0.088-2.479-0.25-3.037,1.006    c-0.195,0.416-0.279,1.029-0.055,1.449c0.193,0.473,0.641,0.918,1.141,1.057l0.752,0.057h9.556    c4.428,0.111,8.525,2.867,10.445,6.851c1.701,3.344,1.45,7.912-0.445,11.09c-2.394,4.037-6.658,6.295-11.281,6.129H46.002    c0,0-4.068-14.684-4.096-14.709l-4.096,14.709l-9.693,0.002l-3.9-14.767l-4.264,14.736H9.229c0,0,9.861-35.49,10.502-37.832h9.057    l4.262,15.824l4.346-15.824l8.887-0.002l7.605,27.557h17.718c1.223-0.059,2.924,0.275,3.426-1.227    c0.195-0.672,0.029-1.367-0.445-1.84c-0.447-0.391-1.004-0.5-1.588-0.5L63.471,31.5c-4.514-0.139-8.998-3.092-10.67-7.436    c-1.811-4.348-0.752-9.558,2.563-12.924c2.34-2.346,5.125-3.516,8.387-3.654l31.256-0.027l6.298,9.08l6.516-9.108L120.078,7.434z"/>
	</g>
</g>
<path d="M132.412,52.809c0.258-2.376,0.434-4.764,0.792-7.125c0.619-4.084,3.036-7.119,5.996-9.794  c2.16-1.952,4.379-3.84,6.477-5.856c1.432-1.376,1.733-3.387,0.952-4.821c-0.606-1.112-1.599-1.597-2.792-1.341  c-1.171,0.251-1.792,1.008-1.851,2.182c-0.047,0.95-0.01,1.905-0.01,2.947c-3.183,0-6.307,0-9.43,0  c-1.055-5.931,3.441-12.201,9.513-13.321c2.164-0.399,4.292-0.295,6.395,0.291c6.451,1.798,9.532,7.764,7.586,14.636  c-0.766,2.706-2.257,4.847-4.577,6.508c-2.392,1.713-4.639,3.628-6.938,5.471c-0.515,0.421-0.574,0.561-0.788,1.081  c4.295,0,8.139,0,12.392,0c0,3.114,0,6.128,0,9.143C148.224,52.809,140.318,52.809,132.412,52.809z"/>
<g>
</g>
<g>
</g>
<g>
</g>
<g>
</g>
<g>
</g>
<g>
</g>
<g>
</g>
<g>
</g>
<g>
</g>
<g>
</g>
<g>
</g>
<g>
</g>
<script xmlns=""/><link xmlns=""/></svg>