<?xml version="1.0" standalone="no"?>
<!DOCTYPE svg PUBLIC "-//W3C//DTD SVG 20010904//EN"
 "http://www.w3.org/TR/2001/REC-SVG-20010904/DTD/svg10.dtd">
<svg version="1.0" xmlns="http://www.w3.org/2000/svg"
 width="1000.000000pt" height="299.000000pt" viewBox="0 0 1000.000000 299.000000"
 preserveAspectRatio="xMidYMid meet">

<g transform="translate(0.000000,299.000000) scale(0.100000,-0.100000)"
fill="#000000" stroke="none">
<path d="M9630 2969 c-30 -4 -221 -31 -425 -58 -462 -63 -879 -123 -884 -127
-2 -2 4 -23 15 -46 23 -53 24 -173 0 -358 -18 -146 -67 -590 -96 -873 -14
-140 -27 -219 -44 -270 -13 -39 -22 -74 -20 -76 8 -9 660 81 671 92 2 2 -1 34
-6 71 -11 76 -8 147 19 421 6 61 19 184 30 275 11 91 29 257 40 370 12 113 25
208 29 212 7 8 338 58 384 58 46 0 52 -29 34 -183 -8 -74 -20 -144 -27 -156
-15 -30 -43 -39 -174 -57 -61 -8 -112 -17 -113 -18 -4 -3 -33 -259 -30 -260
33 -11 46 -36 90 -177 27 -85 73 -231 103 -326 l55 -172 52 5 c29 3 144 19
257 35 113 16 239 34 280 40 41 6 76 12 78 14 2 1 -6 22 -17 46 -18 38 -41 97
-132 334 -10 28 -39 100 -64 162 -25 62 -45 114 -45 117 0 2 33 14 73 26 90
27 145 79 170 161 23 74 47 267 54 429 5 122 4 140 -14 181 -46 103 -154 137
-343 108z"/>
<path d="M8035 2753 c-255 -35 -548 -77 -655 -93 -217 -33 -335 -50 -493 -70
-82 -10 -151 -20 -153 -23 -3 -2 0 -15 5 -29 22 -57 22 -138 2 -318 -12 -102
-30 -279 -41 -395 -58 -598 -82 -771 -120 -846 -11 -21 -17 -40 -12 -42 4 -2
129 13 277 34 149 21 401 57 560 79 283 40 468 67 512 76 16 3 25 19 41 71 38
133 62 221 62 232 0 5 -31 -1 -69 -14 -101 -36 -138 -43 -438 -84 l-273 -37 0
32 c0 57 40 398 48 405 7 7 387 63 497 73 33 3 88 2 122 -2 l62 -8 6 40 c10
84 33 301 31 303 -1 1 -35 -9 -76 -23 -79 -26 -209 -51 -440 -84 -80 -11 -150
-22 -157 -25 -7 -2 -15 0 -19 6 -7 12 25 371 34 381 4 3 129 23 277 43 208 28
294 36 373 33 l104 -4 -7 141 c-7 139 -10 156 -23 154 -4 -1 -20 -4 -37 -6z"/>
<path d="M6589 2556 c-3 -4 -284 -46 -303 -46 -2 0 -6 -33 -8 -72 -4 -78 -35
-165 -126 -358 -24 -52 -55 -120 -69 -150 -13 -30 -30 -68 -37 -85 -8 -16 -32
-68 -54 -115 -22 -47 -50 -110 -62 -140 -11 -30 -41 -98 -67 -150 -79 -166
-101 -214 -108 -237 -9 -34 -23 -28 -34 15 -6 20 -26 91 -44 157 -19 66 -40
145 -47 175 -7 30 -26 105 -42 165 -41 155 -73 274 -103 390 -23 86 -26 113
-21 194 l6 94 -43 -6 c-286 -41 -662 -98 -666 -102 -2 -3 5 -15 16 -28 11 -12
25 -31 31 -42 9 -19 103 -376 218 -835 159 -633 159 -635 186 -638 14 -2 99 9
189 23 90 14 227 34 304 46 77 11 143 23 148 28 4 4 36 72 71 152 69 156 198
441 250 554 56 120 85 183 191 420 153 342 198 434 249 512 25 39 46 73 46 77
0 7 -64 9 -71 2z"/>
<path d="M4318 2225 c-163 -24 -306 -46 -317 -50 -17 -5 -19 -10 -11 -30 23
-60 21 -155 -9 -420 -17 -148 -44 -408 -61 -577 -38 -386 -45 -433 -75 -524
-14 -41 -25 -77 -25 -79 0 -3 10 -3 23 0 12 3 83 12 157 20 185 20 483 64 492
73 4 4 3 23 -2 42 -16 55 -12 171 14 422 14 128 28 267 31 308 4 41 20 197 35
346 30 276 49 396 75 458 20 48 19 56 -7 55 -13 0 -157 -20 -320 -44z"/>
<path d="M3210 2066 c-85 -13 -218 -33 -295 -45 -77 -11 -286 -41 -465 -65
-459 -64 -426 -57 -411 -84 5 -9 14 -42 20 -73 12 -58 5 -166 -34 -499 -8 -69
-24 -213 -35 -320 -59 -537 -72 -619 -118 -704 -8 -14 53 -7 507 59 96 13 176
26 177 28 2 2 -1 19 -6 38 -17 57 -11 182 20 459 28 241 50 444 82 743 9 79
16 111 27 116 25 13 322 53 365 49 60 -5 63 -16 42 -185 -22 -193 -20 -190
-187 -215 -67 -10 -124 -20 -126 -22 -4 -4 -32 -211 -33 -238 0 -11 8 -18 20
-18 16 0 26 -21 60 -132 23 -73 71 -224 106 -335 l66 -202 46 5 c26 3 70 9 97
14 28 5 151 23 275 41 124 17 229 35 233 39 5 4 1 23 -8 41 -10 18 -28 60 -40
93 -12 34 -61 161 -109 284 -47 122 -86 226 -86 231 0 4 25 13 55 20 74 17
133 63 168 133 25 49 32 81 54 274 28 253 27 332 -8 395 -54 98 -174 118 -459
75z"/>
<path d="M1420 1814 c-53 -10 -352 -54 -500 -74 -85 -11 -173 -23 -195 -27
-22 -3 -51 -7 -65 -9 -14 -2 -41 -5 -60 -8 -50 -8 -133 -19 -150 -21 -94 -12
-213 -29 -243 -37 -34 -8 -38 -12 -33 -31 17 -60 16 -168 -3 -362 -12 -115
-23 -219 -26 -230 -2 -11 -7 -54 -10 -95 -4 -41 -15 -154 -26 -250 -11 -96
-26 -240 -35 -320 -16 -158 -35 -254 -60 -307 -9 -18 -14 -36 -11 -39 3 -3 38
-1 79 6 40 6 172 24 293 40 121 16 281 39 355 50 74 12 164 25 200 30 354 45
482 76 576 139 57 38 116 104 147 166 45 90 83 320 112 670 3 44 13 143 22
220 41 370 -17 483 -252 491 -49 1 -101 0 -115 -2z m-230 -329 c20 -24 16 -91
-25 -455 -8 -69 -19 -179 -25 -245 -19 -215 -37 -316 -61 -341 -21 -22 -73
-39 -159 -49 -38 -5 -120 -16 -219 -29 -23 -4 -23 -3 -17 63 3 36 8 100 11
141 3 41 13 134 21 205 8 72 21 198 29 280 8 83 20 202 27 265 6 63 16 120 22
127 11 13 252 49 337 52 30 1 51 -4 59 -14z"/>
</g>
</svg>
